<svg xmlns="http://www.w3.org/2000/svg" xmlns:xlink="http://www.w3.org/1999/xlink" version="1.1" id="Layer_1" x="0" y="0" viewBox="0 0 13 13" xml:space="preserve" enable-background="new 0 0 13 13" fill="#C1A670"><path d="M7.2 6.5l5.6-5.6c0.2-0.2 0.2-0.5 0-0.7s-0.5-0.2-0.7 0L6.5 5.8 0.9 0.1C0.7 0 0.3 0 0.1 0.1 0 0.3 0 0.7 0.1 0.9l5.6 5.6 -5.6 5.6c-0.2 0.2-0.2 0.5 0 0.7C0.2 13 0.4 13 0.5 13c0.1 0 0.3 0 0.4-0.1l5.6-5.6 5.6 5.6c0.1 0.1 0.2 0.1 0.4 0.1s0.3 0 0.4-0.1c0.2-0.2 0.2-0.5 0-0.7L7.2 6.5 7.2 6.5z"/></svg>
